# xmcd
#
# Track frame offsets: 
#        225
#        21760
#        44957
#        61523
#        82441
#        98816
#        119500
#        137746
#        159389
#        179460
#        197775
#        216607
#        237336
#        252926
#        271087
#        291598
#        310875
#        326818
#
# Disc length: 4570 seconds
#
# Revision: 0
# Processed by: cddbd v1.4PL0 Copyright (c) Steve Scherf et al.
# Submitted via: ExactAudioCopy v0.95a3
#
DISCID=1f11d712
DTITLE=Freedomfactory presents - B N Music v17
DYEAR=2003
DGENRE=Soul
TTITLE0=Full Flava - Stories (feat. Carleen Anderson)
TTITLE1=Full Flava - Chinese Whispers (Bishop Brad Remix)
TTITLE2=Full Flava - Round And Round (feat. Romina Johnson)
TTITLE3=Donna Gardier - I Got The Strength
TTITLE4=Full Flava - Unwrap (feat. Beverlei Brown)
TTITLE5=Full Flava - Make It Right (feat. Donna Odain)
TTITLE6=Full Flava - I'm Not Giving Up [This Feeling] (feat. Alison Li
TTITLE6=merick)
TTITLE7=Donna Gardier - You Don't Know
TTITLE8=Beverley Craven - Say You're Sorry
TTITLE9=Count Basic - Not Enough
TTITLE10=Donna Gardier - Home
TTITLE11=Full Flava - I Think About Him (feat. Ce Ce Peniston)
TTITLE12=Count Basic - Make Me Believe Again
TTITLE13=Count Basic - Consequences
TTITLE14=Incognito - Cut it loose
TTITLE15=Donna Gardier - I Am
TTITLE16=Full Flava - Love Holds No Limit (feat. Beverlei Brown)
TTITLE17=Full Flava - You Are (feat. Carleen Anderson)
EXTD=
EXTT0=
EXTT1=
EXTT2=
EXTT3=
EXTT4=
EXTT5=
EXTT6=
EXTT7=
EXTT8=
EXTT9=
EXTT10=
EXTT11=
EXTT12=
EXTT13=
EXTT14=
EXTT15=
EXTT16=
EXTT17=
PLAYORDER=
